<svg xmlns="http://www.w3.org/2000/svg" viewBox="0 0 512 512"><path d="M267.636 500.364h-256C4.655 500.364 0 495.709 0 488.727v-23.273c0-6.982 4.655-11.636 11.636-11.636h256c6.982 0 11.636 4.655 11.636 11.636v23.273c.001 6.982-4.654 11.637-11.636 11.637z" fill="#f6b545"/><path d="M221.091 465.455H0c0-6.982 4.655-11.636 11.636-11.636h209.455v11.636z" fill="#ffcb5b"/><g fill="#f19920"><path d="M221.091 465.455v11.636c0 6.982-4.655 11.636-11.636 11.636H0c0 6.982 4.655 11.636 11.636 11.636h256c6.982 0 11.636-4.655 11.636-11.636v-23.273h-58.181z"/><path d="M34.909 488.727v-17.455c0-3.491-2.327-5.818-5.818-5.818s-5.818 2.327-5.818 5.818v17.455m46.545 0v-17.455c0-3.491-2.327-5.818-5.818-5.818-3.491 0-5.818 2.327-5.818 5.818v17.455m46.545 0v-17.455c0-3.491-2.327-5.818-5.818-5.818-3.491 0-5.818 2.327-5.818 5.818v17.455m46.545 0v-17.455c0-3.491-2.327-5.818-5.818-5.818-3.491 0-5.818 2.327-5.818 5.818v17.455m46.545 0v-17.455c0-3.491-2.327-5.818-5.818-5.818s-5.818 2.327-5.818 5.818v17.455m46.546 0v-17.455c0-3.491-2.327-5.818-5.818-5.818s-5.818 2.327-5.818 5.818v17.455"/></g><path d="M290.909 453.818h-256c-6.982 0-11.636-4.655-11.636-11.636v-23.273c0-6.982 4.655-11.636 11.636-11.636h256c6.982 0 11.636 4.655 11.636 11.636v23.273c0 6.982-4.654 11.636-11.636 11.636z" fill="#f6b545"/><path d="M244.364 418.909H23.273c0-6.982 4.655-11.636 11.636-11.636h209.455v11.636z" fill="#ffcb5b"/><g fill="#f19920"><path d="M244.364 418.909v11.636c0 6.982-4.655 11.636-11.636 11.636H23.273c0 6.982 4.655 11.636 11.636 11.636h256c6.982 0 11.636-4.655 11.636-11.636v-23.273h-58.181z"/><path d="M58.182 442.182v-17.455c0-3.491-2.327-5.818-5.818-5.818-3.491 0-5.818 2.327-5.818 5.818v17.455m46.545 0v-17.455c0-3.491-2.327-5.818-5.818-5.818-3.491 0-5.818 2.327-5.818 5.818v17.455m46.545 0v-17.455c0-3.491-2.327-5.818-5.818-5.818-3.491 0-5.818 2.327-5.818 5.818v17.455m46.545 0v-17.455c0-3.491-2.327-5.818-5.818-5.818s-5.818 2.327-5.818 5.818v17.455m46.545 0v-17.455c0-3.491-2.327-5.818-5.818-5.818-3.491 0-5.818 2.327-5.818 5.818v17.455m46.545 0v-17.455c0-3.491-2.327-5.818-5.818-5.818-3.491 0-5.818 2.327-5.818 5.818v17.455"/></g><path d="M314.182 360.727h-256c-6.982 0-11.636-4.655-11.636-11.636v-23.273c0-6.982 4.655-11.636 11.636-11.636h256c6.982 0 11.636 4.655 11.636 11.636v23.273c0 6.982-4.654 11.636-11.636 11.636z" fill="#f6b545"/><path d="M267.636 325.818H46.545c0-6.982 4.655-11.636 11.636-11.636h209.455v11.636z" fill="#ffcb5b"/><g fill="#f19920"><path d="M267.636 325.818v11.636c0 6.982-4.655 11.636-11.636 11.636H46.545c0 6.982 4.655 11.636 11.636 11.636h256.001c6.982 0 11.636-4.655 11.636-11.636v-23.273h-58.182z"/><path d="M81.455 349.091v-17.455c0-3.491-2.327-5.818-5.818-5.818-3.491 0-5.818 2.327-5.818 5.818v17.455m46.545 0v-17.455c0-3.491-2.327-5.818-5.818-5.818-3.491 0-5.818 2.327-5.818 5.818v17.455m46.545 0v-17.455c0-3.491-2.327-5.818-5.818-5.818-3.491 0-5.818 2.327-5.818 5.818v17.455m46.545 0v-17.455c0-3.491-2.327-5.818-5.818-5.818-3.491 0-5.818 2.327-5.818 5.818v17.455m46.545 0v-17.455c0-3.491-2.327-5.818-5.818-5.818s-5.818 2.327-5.818 5.818v17.455m46.545 0v-17.455c0-3.491-2.327-5.818-5.818-5.818s-5.818 2.327-5.818 5.818v17.455"/></g><path d="M290.909 314.182h-256c-6.982 0-11.636-4.655-11.636-11.636v-23.273c0-6.982 4.655-11.636 11.636-11.636h256c6.982 0 11.636 4.655 11.636 11.636v23.273c0 6.981-4.654 11.636-11.636 11.636z" fill="#f6b545"/><path d="M244.364 279.273H23.273c0-6.982 4.655-11.636 11.636-11.636h209.455v11.636z" fill="#ffcb5b"/><g fill="#f19920"><path d="M244.364 279.273v11.636c0 6.982-4.655 11.636-11.636 11.636H23.273c0 6.982 4.655 11.636 11.636 11.636h256c6.982 0 11.636-4.655 11.636-11.636v-23.273h-58.181z"/><path d="M58.182 302.545V285.09c0-3.491-2.327-5.818-5.818-5.818-3.491 0-5.818 2.327-5.818 5.818v17.455m46.545 0V285.09c0-3.491-2.327-5.818-5.818-5.818-3.491 0-5.818 2.327-5.818 5.818v17.455m46.545 0V285.09c0-3.491-2.327-5.818-5.818-5.818-3.491 0-5.818 2.327-5.818 5.818v17.455m46.545 0V285.09c0-3.491-2.327-5.818-5.818-5.818s-5.818 2.327-5.818 5.818v17.455m46.545 0V285.09c0-3.491-2.327-5.818-5.818-5.818-3.491 0-5.818 2.327-5.818 5.818v17.455m46.545 0V285.09c0-3.491-2.327-5.818-5.818-5.818-3.491 0-5.818 2.327-5.818 5.818v17.455"/></g><path d="M267.636 407.273h-256C4.655 407.273 0 402.618 0 395.636v-23.273c0-6.982 4.655-11.636 11.636-11.636h256c6.982 0 11.636 4.655 11.636 11.636v23.273c.001 6.982-4.654 11.637-11.636 11.637z" fill="#f6b545"/><path d="M221.091 372.364H0c0-6.982 4.655-11.636 11.636-11.636h209.455v11.636z" fill="#ffcb5b"/><g fill="#f19920"><path d="M221.091 372.364V384c0 6.982-4.655 11.636-11.636 11.636H0c0 6.982 4.655 11.636 11.636 11.636h256c6.982 0 11.636-4.655 11.636-11.636v-23.273h-58.181z"/><path d="M34.909 395.636v-17.455c0-3.491-2.327-5.818-5.818-5.818s-5.818 2.327-5.818 5.818v17.455m46.545 0v-17.455c0-3.491-2.327-5.818-5.818-5.818-3.491 0-5.818 2.327-5.818 5.818v17.455m46.545 0v-17.455c0-3.491-2.327-5.818-5.818-5.818-3.491 0-5.818 2.327-5.818 5.818v17.455m46.545 0v-17.455c0-3.491-2.327-5.818-5.818-5.818-3.491 0-5.818 2.327-5.818 5.818v17.455m46.545 0v-17.455c0-3.491-2.327-5.818-5.818-5.818s-5.818 2.327-5.818 5.818v17.455m46.546 0v-17.455c0-3.491-2.327-5.818-5.818-5.818s-5.818 2.327-5.818 5.818v17.455"/></g><path d="M488.727 424.727c-15.127-10.473-23.273-27.927-23.273-46.545 0-70.982-27.927-138.473-77.964-188.509l-50.036-50.036v-34.909l40.727-51.2C381.673 48.873 384 43.055 384 37.236c0-13.964-11.636-25.6-25.6-25.6h-44.218l-11.636 23.273-23.273-23.273h-55.855c-13.964 0-25.6 11.636-25.6 25.6 0 5.818 2.327 11.636 5.818 16.291l40.727 51.2v34.909l-50.036 50.036c-50.036 50.036-77.964 117.527-77.964 188.509 0 18.618-8.145 36.073-23.273 46.545s-23.273 27.927-23.273 46.545c0 16.291 12.8 29.091 29.091 29.091h384c16.291 0 29.091-12.8 29.091-29.091.001-18.616-8.144-36.071-23.272-46.544z" fill="#c97629"/><path d="M488.727 424.727c-15.127-11.636-23.273-29.091-23.273-47.709 1.164-73.309-32.582-141.964-83.782-194.327l-44.218-43.055v-34.909l40.727-51.2c6.982-8.145 8.145-19.782 2.327-30.255-4.655-8.145-13.964-11.636-23.273-11.636-8.145 0-12.8 9.309-10.473 16.291 1.164 2.327 2.327 5.818 2.327 9.309 0 5.818-2.327 11.636-5.818 16.291l-40.727 51.2v34.909h-58.182l-11.636 11.636h81.455l43.055 43.055c47.709 47.709 66.327 112.873 61.673 179.2-1.164 19.782 6.982 38.4 22.109 50.036 1.164 1.164 2.327 2.327 3.491 2.327 17.455 18.618 2.327 50.036-24.436 50.036H70.982c2.327 12.8 13.964 23.273 27.927 23.273H482.91C499.2 499.2 512 486.4 512 470.109v-2.327c0-17.455-9.309-32.582-23.273-43.055z" fill="#b06328"/><path d="M343.273 139.636H238.545c-9.309 0-17.455-8.145-17.455-17.455 0-9.309 8.145-17.455 17.455-17.455h104.727c9.309 0 17.455 8.145 17.455 17.455 0 9.31-8.145 17.455-17.454 17.455z" fill="#ffcb5b"/><path d="M238.545 104.727h58.182c3.491 0 5.818 2.327 5.818 5.818 0 3.491-2.327 5.818-5.818 5.818h-58.182c-3.491 0-5.818-2.327-5.818-5.818 0-3.49 2.328-5.818 5.818-5.818z" fill="#ffe278"/><path d="M343.273 104.727h-5.818v11.636c0 6.982-4.655 11.636-11.636 11.636H222.255c2.327 6.982 9.309 11.636 16.291 11.636h104.727c9.309 0 17.455-8.145 17.455-17.455s-8.146-17.453-17.455-17.453z" fill="#f6b545"/><path d="M308.364 128h34.909c3.491 0 5.818 2.327 5.818 5.818 0 3.491-2.327 5.818-5.818 5.818h-34.909c-3.491 0-5.818-2.327-5.818-5.818-.001-3.491 2.327-5.818 5.818-5.818z" fill="#f19920"/><path fill="#f6b545" d="M279.273 139.636h23.273v93.091h-23.273z"/><path fill="#f19920" d="M279.273 139.636v11.637h11.636v81.454h11.636v-93.091z"/><circle cx="290.909" cy="314.182" r="93.091" fill="#f6b545"/><path d="M361.891 254.836C375.855 271.127 384 290.909 384 314.182c0 51.2-41.891 93.091-93.091 93.091-23.273 0-43.055-8.145-59.345-22.109 17.455 20.945 43.055 33.745 70.982 33.745 51.2 0 93.091-41.891 93.091-93.091-.001-29.091-12.801-54.691-33.746-70.982z" fill="#b06328"/><circle cx="290.909" cy="314.182" r="81.455" fill="#ffcb5b"/><path d="M372.364 314.182c0 45.382-36.073 81.455-81.455 81.455v11.636c51.2 0 93.091-41.891 93.091-93.091h-11.636z" fill="#f19920"/><path d="M290.909 232.727v-11.636c-51.2 0-93.091 41.891-93.091 93.091h11.636c.001-45.382 36.073-81.455 81.455-81.455z" fill="#ffe27a"/><path d="M302.545 302.545h-23.273c-6.982 0-11.636-4.655-11.636-11.636 0-6.982 4.655-11.636 11.636-11.636h34.909c6.982 0 11.636-4.655 11.636-11.636 0-6.982-4.655-11.636-11.636-11.636h-11.636c0-6.982-4.655-11.636-11.636-11.636-6.982 0-11.636 4.655-11.636 11.636-19.782 0-34.909 15.127-34.909 34.909s15.127 34.909 34.909 34.909h23.273c6.982 0 11.636 4.655 11.636 11.636s-4.655 11.636-11.636 11.636h-34.909c-6.982 0-11.636 4.655-11.636 11.636 0 6.982 4.655 11.636 11.636 11.636h11.636c0 6.982 4.655 11.636 11.636 11.636 6.982 0 11.636-4.655 11.636-11.636 19.782 0 34.909-15.127 34.909-34.909s-15.127-34.909-34.909-34.909z" fill="#e78825"/></svg>